<mxfile host="app.diagrams.net" agent="Mozilla/5.0 (Windows NT 10.0; Win64; x64) AppleWebKit/537.36 (KHTML, like Gecko) Chrome/129.0.0.0 Safari/537.36" version="24.7.17">
  <diagram id="C5RBs43oDa-KdzZeNtuy" name="Page-1">
    <mxGraphModel dx="1434" dy="780" grid="1" gridSize="10" guides="1" tooltips="1" connect="1" arrows="1" fold="1" page="1" pageScale="1" pageWidth="827" pageHeight="1169" math="0" shadow="0">
      <root>
        <mxCell id="WIyWlLk6GJQsqaUBKTNV-0" />
        <mxCell id="WIyWlLk6GJQsqaUBKTNV-1" parent="WIyWlLk6GJQsqaUBKTNV-0" />
        <mxCell id="VXwU-HGp7ROQsyY8yVJj-0" style="edgeStyle=orthogonalEdgeStyle;rounded=0;orthogonalLoop=1;jettySize=auto;html=1;fontStyle=1;fontSize=16;" edge="1" parent="WIyWlLk6GJQsqaUBKTNV-1" source="VXwU-HGp7ROQsyY8yVJj-1" target="VXwU-HGp7ROQsyY8yVJj-3">
          <mxGeometry relative="1" as="geometry" />
        </mxCell>
        <mxCell id="VXwU-HGp7ROQsyY8yVJj-1" value="start" style="rounded=1;whiteSpace=wrap;html=1;fontStyle=1;fontSize=16;" vertex="1" parent="WIyWlLk6GJQsqaUBKTNV-1">
          <mxGeometry x="354" y="130" width="120" height="60" as="geometry" />
        </mxCell>
        <mxCell id="VXwU-HGp7ROQsyY8yVJj-2" style="edgeStyle=orthogonalEdgeStyle;rounded=0;orthogonalLoop=1;jettySize=auto;html=1;fontStyle=1;fontSize=16;" edge="1" parent="WIyWlLk6GJQsqaUBKTNV-1" source="VXwU-HGp7ROQsyY8yVJj-3">
          <mxGeometry relative="1" as="geometry">
            <mxPoint x="414" y="330" as="targetPoint" />
          </mxGeometry>
        </mxCell>
        <mxCell id="VXwU-HGp7ROQsyY8yVJj-3" value="int a = 1&lt;div&gt;int sum = 0&lt;/div&gt;" style="shape=parallelogram;perimeter=parallelogramPerimeter;whiteSpace=wrap;html=1;fixedSize=1;fontStyle=1;fontSize=16;" vertex="1" parent="WIyWlLk6GJQsqaUBKTNV-1">
          <mxGeometry x="354" y="230" width="120" height="60" as="geometry" />
        </mxCell>
        <mxCell id="VXwU-HGp7ROQsyY8yVJj-27" value="true&amp;nbsp;" style="edgeStyle=orthogonalEdgeStyle;rounded=0;orthogonalLoop=1;jettySize=auto;html=1;exitX=1;exitY=0.5;exitDx=0;exitDy=0;" edge="1" parent="WIyWlLk6GJQsqaUBKTNV-1" source="VXwU-HGp7ROQsyY8yVJj-26">
          <mxGeometry relative="1" as="geometry">
            <mxPoint x="700" y="530" as="targetPoint" />
          </mxGeometry>
        </mxCell>
        <mxCell id="VXwU-HGp7ROQsyY8yVJj-30" style="edgeStyle=orthogonalEdgeStyle;rounded=0;orthogonalLoop=1;jettySize=auto;html=1;entryX=0.5;entryY=0;entryDx=0;entryDy=0;" edge="1" parent="WIyWlLk6GJQsqaUBKTNV-1" source="VXwU-HGp7ROQsyY8yVJj-26" target="VXwU-HGp7ROQsyY8yVJj-31">
          <mxGeometry relative="1" as="geometry">
            <mxPoint x="200" y="420" as="targetPoint" />
          </mxGeometry>
        </mxCell>
        <mxCell id="VXwU-HGp7ROQsyY8yVJj-26" value="a % 2 != 0&amp;nbsp;" style="rhombus;whiteSpace=wrap;html=1;" vertex="1" parent="WIyWlLk6GJQsqaUBKTNV-1">
          <mxGeometry x="320" y="330" width="192" height="180" as="geometry" />
        </mxCell>
        <mxCell id="VXwU-HGp7ROQsyY8yVJj-33" style="edgeStyle=orthogonalEdgeStyle;rounded=0;orthogonalLoop=1;jettySize=auto;html=1;" edge="1" parent="WIyWlLk6GJQsqaUBKTNV-1" source="VXwU-HGp7ROQsyY8yVJj-28" target="VXwU-HGp7ROQsyY8yVJj-34">
          <mxGeometry relative="1" as="geometry">
            <mxPoint x="710" y="650" as="targetPoint" />
          </mxGeometry>
        </mxCell>
        <mxCell id="VXwU-HGp7ROQsyY8yVJj-28" value="sum += a&amp;nbsp;&lt;div&gt;a++&amp;nbsp;&lt;/div&gt;" style="rounded=0;whiteSpace=wrap;html=1;" vertex="1" parent="WIyWlLk6GJQsqaUBKTNV-1">
          <mxGeometry x="650" y="530" width="120" height="60" as="geometry" />
        </mxCell>
        <mxCell id="VXwU-HGp7ROQsyY8yVJj-32" style="edgeStyle=orthogonalEdgeStyle;rounded=0;orthogonalLoop=1;jettySize=auto;html=1;entryX=0.5;entryY=1;entryDx=0;entryDy=0;" edge="1" parent="WIyWlLk6GJQsqaUBKTNV-1" source="VXwU-HGp7ROQsyY8yVJj-31" target="VXwU-HGp7ROQsyY8yVJj-26">
          <mxGeometry relative="1" as="geometry">
            <mxPoint x="420" y="550" as="targetPoint" />
          </mxGeometry>
        </mxCell>
        <mxCell id="VXwU-HGp7ROQsyY8yVJj-31" value="&lt;div&gt;a++&amp;nbsp;&lt;/div&gt;" style="rounded=0;whiteSpace=wrap;html=1;" vertex="1" parent="WIyWlLk6GJQsqaUBKTNV-1">
          <mxGeometry x="140" y="520" width="120" height="60" as="geometry" />
        </mxCell>
        <mxCell id="VXwU-HGp7ROQsyY8yVJj-35" value="true&amp;nbsp;" style="edgeStyle=orthogonalEdgeStyle;rounded=0;orthogonalLoop=1;jettySize=auto;html=1;" edge="1" parent="WIyWlLk6GJQsqaUBKTNV-1" source="VXwU-HGp7ROQsyY8yVJj-34" target="VXwU-HGp7ROQsyY8yVJj-36">
          <mxGeometry relative="1" as="geometry">
            <mxPoint x="710" y="820" as="targetPoint" />
          </mxGeometry>
        </mxCell>
        <mxCell id="VXwU-HGp7ROQsyY8yVJj-39" value="false" style="edgeStyle=orthogonalEdgeStyle;rounded=0;orthogonalLoop=1;jettySize=auto;html=1;" edge="1" parent="WIyWlLk6GJQsqaUBKTNV-1" source="VXwU-HGp7ROQsyY8yVJj-34">
          <mxGeometry relative="1" as="geometry">
            <mxPoint x="420" y="510" as="targetPoint" />
          </mxGeometry>
        </mxCell>
        <mxCell id="VXwU-HGp7ROQsyY8yVJj-34" value="a == 100&amp;nbsp;" style="rhombus;whiteSpace=wrap;html=1;" vertex="1" parent="WIyWlLk6GJQsqaUBKTNV-1">
          <mxGeometry x="670" y="650" width="80" height="80" as="geometry" />
        </mxCell>
        <mxCell id="VXwU-HGp7ROQsyY8yVJj-37" style="edgeStyle=orthogonalEdgeStyle;rounded=0;orthogonalLoop=1;jettySize=auto;html=1;" edge="1" parent="WIyWlLk6GJQsqaUBKTNV-1" source="VXwU-HGp7ROQsyY8yVJj-36" target="VXwU-HGp7ROQsyY8yVJj-38">
          <mxGeometry relative="1" as="geometry">
            <mxPoint x="710" y="1010" as="targetPoint" />
          </mxGeometry>
        </mxCell>
        <mxCell id="VXwU-HGp7ROQsyY8yVJj-36" value="sum&amp;nbsp;" style="shape=document;whiteSpace=wrap;html=1;boundedLbl=1;" vertex="1" parent="WIyWlLk6GJQsqaUBKTNV-1">
          <mxGeometry x="650" y="840" width="120" height="80" as="geometry" />
        </mxCell>
        <mxCell id="VXwU-HGp7ROQsyY8yVJj-38" value="finish" style="ellipse;whiteSpace=wrap;html=1;" vertex="1" parent="WIyWlLk6GJQsqaUBKTNV-1">
          <mxGeometry x="650" y="970" width="120" height="80" as="geometry" />
        </mxCell>
      </root>
    </mxGraphModel>
  </diagram>
</mxfile>
